<svg width="157" height="173" viewBox="0 0 157 173" fill="none" xmlns="http://www.w3.org/2000/svg">
<g clip-path="url(#clip0_734_885)">
<path d="M157.761 146.096L157.721 99.0352L74.2338 1.01741L34.2173 1.05176L157.761 146.096Z" fill="#3843C1"/>
<path d="M157.781 169.275L157.773 160.407L97.146 89.2266L97.1536 98.0947L157.781 169.275Z" fill="white"/>
<path opacity="0.2" d="M123.039 105.329L157.761 146.096L157.765 150.358L123.042 109.593L123.039 105.329Z" fill="#F84923"/>
<path d="M157.637 0.945746L74.2339 1.01733L157.721 99.0351L157.637 0.945746Z" fill="#F84923"/>
<path opacity="0.2" d="M77.8564 1.01422L157.717 94.7728L157.721 99.0351L74.2339 1.01733L77.8564 1.01422Z" fill="#F84923"/>
<path d="M0 1.08105L25.5186 1.05915L90.6194 77.4901L65.1009 77.512L0 1.08105Z" fill="#F84923"/>
<path opacity="0.2" d="M157.784 172.172L157.781 169.275L123.059 128.508L123.061 131.407L157.784 172.172Z" fill="#F84923"/>
</g>
<defs>
<clipPath id="clip0_734_885">
<rect width="171.226" height="157.317" fill="white" transform="matrix(0.000858342 1 1 -0.000858342 0 1.08105)"/>
</clipPath>
</defs>
</svg>
